<?xml version="1.0" encoding="UTF-8"?>
<!--Generator: Apple Native CoreSVG 341-->
<!DOCTYPE svg
PUBLIC "-//W3C//DTD SVG 1.1//EN"
       "http://www.w3.org/Graphics/SVG/1.1/DTD/svg11.dtd">
<svg version="1.1" xmlns="http://www.w3.org/2000/svg" xmlns:xlink="http://www.w3.org/1999/xlink" viewBox="0 0 148.359 140.801">
 <defs>
  <linearGradient id="gradient1" x1="5" y1="4.16016" x2="5" y2="140.801" gradientUnits="userSpaceOnUse">
   <stop offset="0" stop-color="#b0df56" stop-opacity="1"/>
   <stop offset="1" stop-color="#89cf01" stop-opacity="1"/>
  </linearGradient>
 </defs>
 <g>
  <rect height="140.801" opacity="0" width="148.359" x="0" y="0"/>
  <path d="M0 48.9258C0 80.7422 27.3047 111.914 69.2578 138.926C70.7227 139.863 72.7734 140.801 74.1797 140.801C75.6445 140.801 77.6953 139.863 79.1602 138.926C121.055 111.914 148.359 80.7422 148.359 48.9258C148.359 22.793 130.371 4.16016 106.289 4.16016C92.5195 4.16016 80.8008 11.0742 74.1797 21.6797C67.6172 11.1328 55.8984 4.16016 42.0703 4.16016C17.9883 4.16016 0 22.793 0 48.9258ZM10.3711 48.9258C10.3711 28.418 23.7891 14.5312 41.9531 14.5312C56.0742 14.5312 64.5703 23.3203 69.668 31.582C71.4258 34.2773 72.5977 35.0977 74.1797 35.0977C75.8203 35.0977 76.8164 34.2188 78.75 31.582C84.082 23.4375 92.3438 14.5312 106.406 14.5312C124.57 14.5312 137.988 28.418 137.988 48.9258C137.988 77.2266 108.34 107.344 75.5859 129.141C74.9414 129.551 74.4727 129.902 74.1797 129.902C73.8867 129.902 73.418 129.551 72.7734 129.141C40.0195 107.344 10.3711 77.2266 10.3711 48.9258Z" fill="url(#gradient1)"/>
 </g>
</svg>
