<?xml version="1.0" encoding="UTF-8"?>
<!--Generator: Apple Native CoreSVG 341-->
<!DOCTYPE svg
PUBLIC "-//W3C//DTD SVG 1.1//EN"
       "http://www.w3.org/Graphics/SVG/1.1/DTD/svg11.dtd">
<svg version="1.1" xmlns="http://www.w3.org/2000/svg" xmlns:xlink="http://www.w3.org/1999/xlink" viewBox="0 0 165.913 169.043">
 <defs>
  <linearGradient id="gradient1" x1="5" x2="5" y2="158.453" gradientUnits="userSpaceOnUse">
   <stop offset="0" stop-color="#b0df56" stop-opacity="1"/>
   <stop offset="1" stop-color="#89cf01" stop-opacity="1"/>
  </linearGradient>
 </defs>
 <g>
  <rect height="169.043" opacity="0" width="165.913" x="0" y="0"/>
  <path d="M31.8043 157.266C34.5582 159.316 38.0153 158.672 42.1754 155.625L82.9567 125.742L123.679 155.625C127.898 158.672 131.297 159.316 134.109 157.266C136.804 155.215 137.449 151.816 135.75 146.895L119.754 98.9648L160.828 69.4336C165.047 66.4453 166.629 63.3398 165.574 60.0586C164.519 56.8359 161.414 55.1953 156.199 55.2539L105.75 55.5469L90.3981 7.38281C88.7575 2.46094 86.3551 1.42109e-14 82.9567 1.42109e-14C79.4997 1.42109e-14 77.0973 2.46094 75.5153 7.38281L60.1051 55.5469L9.6559 55.2539C4.44106 55.1953 1.39419 56.8359 0.339498 60.0586C-0.773783 63.3398 0.866842 66.4453 5.027 69.4336L46.1012 98.9648L30.1051 146.895C28.4645 151.816 29.109 155.215 31.8043 157.266ZM40.945 144.727C40.7692 144.551 40.8278 144.434 40.945 143.965L56.2965 99.1406C57.234 96.4453 56.7067 94.2773 54.3043 92.6367L15.4567 65.5078C15.0465 65.2734 14.8707 65.0977 14.9879 64.8633C15.1051 64.6289 15.2809 64.6289 15.8082 64.6289L63.152 65.2734C65.9645 65.332 67.7809 64.1602 68.6598 61.4063L82.4293 16.1133C82.6051 15.5859 82.7223 15.4102 82.9567 15.4102C83.1911 15.4102 83.3082 15.5859 83.4254 16.1133L97.195 61.4063C98.0739 64.1602 99.8903 65.332 102.703 65.2734L150.105 64.6289C150.574 64.6289 150.808 64.6289 150.867 64.8633C150.984 65.0977 150.808 65.2734 150.398 65.5078L111.609 92.6367C109.148 94.2773 108.621 96.4453 109.558 99.1406L124.91 143.965C125.027 144.434 125.144 144.551 124.968 144.727C124.793 144.961 124.558 144.785 124.148 144.551L86.4137 115.957C84.1872 114.258 81.6676 114.258 79.4997 115.957L41.7067 144.551C41.3551 144.785 41.1207 144.961 40.945 144.727Z" fill="url(#gradient1)"/>
 </g>
</svg>
